<svg width="821" height="182" viewBox="0 0 821 182" fill="none" xmlns="http://www.w3.org/2000/svg">
<rect width="821" height="182" fill="white"/>
<path d="M104.76 61.3913C105.76 57.3913 105.84 57.1613 108.94 57.5713C110.435 57.6663 111.935 57.6663 113.43 57.5713C117.76 57.5713 118.58 56.7613 119.21 52.5713C121.38 38.3913 125.79 25.3113 140.21 18.5713C146.93 15.5013 154 15.5613 160.82 16.7813C169.49 18.3413 172.82 28.6113 166.64 34.4113C164.64 36.3213 160.53 37.2713 157.76 36.7513C155.55 36.3413 153.76 33.3913 152.03 30.9313C151.19 29.7513 150.36 27.1613 149.94 27.2513C148.15 27.5913 146.76 27.3913 144.94 29.6213C141.68 33.7313 141.28 39.5113 140.04 44.6213C139.04 48.6213 138.93 52.7613 138.32 57.6213H159.52C159.04 61.3113 158.66 64.2113 158.19 67.7813H137.87C136.8 80.7813 135.87 93.2113 134.75 105.591C133.48 119.491 132.97 133.591 130.37 147.201C127.37 162.641 121.2 176.931 103.59 180.911C98.3299 182.101 92.1599 182.601 86.9299 180.671C85.2699 180.051 82.0899 177.851 81.4099 176.201C80.7505 174.479 80.4401 172.642 80.4968 170.798C80.5535 168.954 80.976 167.14 81.7399 165.461C83.7399 161.361 87.2899 161.821 90.8499 162.121C96.8499 162.641 96.7399 167.401 97.1099 173.571C100.019 172.618 102.569 170.8 104.42 168.361C106.76 165.361 108.26 159.451 108.79 154.791C110.85 136.701 112.44 118.551 114.1 100.411C114.94 91.1713 115.26 81.8613 116.41 72.6613C116.91 68.6613 115.41 68.0013 112.22 68.0713C109.57 68.1413 106.93 68.0713 103.6 68.0713C104 65.6813 104.39 63.5313 104.76 61.3413V61.3913Z" fill="#00E5FF"/>
<path d="M747.27 116.001C746.45 124.341 741.93 130.351 735.82 134.331C717.61 146.171 693.63 145.011 678.82 129.581C673.411 123.878 670.078 116.519 669.36 108.691C667.97 95.9113 667.44 82.8913 675.28 71.6913C689.11 51.9113 711.1 49.4013 729.4 59.0013C740.93 65.0713 747.62 76.2013 747.93 90.0513C748.02 93.8513 747.93 97.6613 747.93 101.981H685.53C683.47 117.631 694.03 126.981 706.77 127.921C716.59 128.621 725.69 127.031 731.28 117.391C731.77 116.551 733.5 116.101 734.67 116.051C738.67 115.931 742.66 116.001 747.27 116.001ZM685.13 89.8913H733.22C732.77 70.8913 720.46 66.1413 708.66 66.3413C694.82 66.5713 684.85 76.8213 685.13 89.8913Z" fill="black"/>
<path d="M257.54 101.161H193.65C191.71 114.221 200.19 125.461 213.27 127.091C224.02 128.431 233.81 126.791 240.15 116.501C240.515 116.089 240.96 115.756 241.459 115.524C241.958 115.292 242.5 115.165 243.05 115.151C247.2 115.001 251.35 115.081 256.1 115.081C255.44 119.137 253.923 123.004 251.65 126.427C249.378 129.85 246.402 132.749 242.92 134.931C234.855 140.286 225.238 142.806 215.583 142.094C205.928 141.383 196.784 137.48 189.59 131.001C179.59 121.901 176.89 109.581 177.24 96.5513C177.387 92.0741 177.977 87.6224 179 83.2613C183.3 64.5113 200 53.0013 219.5 53.5313C239.43 54.0313 252.67 68.2913 255.38 81.6513C256.62 87.7713 256.79 94.1113 257.54 101.161ZM193.13 89.6913H241.58C241.11 73.3413 232.51 65.6913 215.42 66.1413C209.36 66.3631 203.629 68.9549 199.461 73.3592C195.292 77.7634 193.019 83.6281 193.13 89.6913Z" fill="black"/>
<path d="M431.59 101.451H367.5C366.36 115.661 375.66 125.741 387.55 127.071C398.36 128.291 408.55 127.351 414.77 116.331C415.17 115.611 416.63 115.171 417.61 115.141C421.75 115.011 425.9 115.081 430.35 115.081C429.71 124.361 424.11 130.431 417.35 134.831C395.57 149.121 360.1 142.891 353.35 111.231C349.06 90.9913 353.35 71.1013 370.66 59.5213C384.56 50.2313 412.53 50.6013 425.3 70.6313C431.33 79.9413 432.61 88.6113 431.59 101.451ZM417.39 89.8613C416.49 85.9813 415.78 82.6613 414.95 79.3613C412.28 68.7813 395.11 63.5113 383.8 67.9213C374.4 71.5913 367.15 80.7913 367.39 89.8613H417.39Z" fill="black"/>
<path d="M461.1 56.1913H477.68V70.0013C479.35 67.7313 480.26 66.5213 481.14 65.2913C491.69 50.7413 514.14 51.2913 524.82 58.4313C528.386 60.7775 531.329 63.9562 533.393 67.6931C535.458 71.43 536.582 75.613 536.67 79.8813C537.38 99.4613 536.9 119.081 536.9 138.941H521.48C521.48 137.231 521.48 135.481 521.48 133.741C521.25 118.421 521.31 103.101 520.65 87.8013C520.32 80.2013 517.65 73.1513 510.41 69.0813C497.41 61.8113 480.97 69.4813 478.02 84.2413C477.341 87.8246 477.007 91.4644 477.02 95.1113C476.9 109.571 476.97 124.041 476.97 138.851H461.1V56.1913Z" fill="black"/>
<path d="M74.71 139.051H58.38C58.29 137.501 58.16 136.051 58.15 134.621C58.02 119.131 57.99 103.621 57.77 88.1513C57.57 74.8313 51.59 67.8213 39.52 66.3813C29.23 65.1513 18.86 72.7613 16.09 83.8113C15.3573 86.8704 14.9914 90.0058 15 93.1513C14.89 108.281 14.95 123.411 14.95 138.871H0V56.3713H14.68V68.7613L13.46 67.0013C17.07 64.4013 20.75 61.8813 24.29 59.1713C33.8 51.8813 53.97 51.6213 63.23 59.1713C71.14 65.6613 74.5 74.6713 74.64 84.6613C74.89 102.631 74.71 120.601 74.71 139.051Z" fill="black"/>
<path d="M646 84.5713H630.06C627.94 76.4413 623.38 70.3113 614.69 68.2313C597.85 64.2313 582.58 75.5613 582.08 92.9513C581.859 99.229 582.557 105.505 584.15 111.581C586.74 121.131 594.82 126.901 604.69 127.401C611.94 127.781 619.18 127.201 624.69 121.801C627.62 118.921 629.63 115.111 632.4 111.231H646.7C645.57 122.031 641.2 130.591 631.94 136.321C617.74 145.111 595.78 144.441 582.71 134.251C578.448 131.065 574.883 127.04 572.234 122.424C569.586 117.808 567.91 112.699 567.31 107.411C565.76 94.4913 566.5 81.9813 573.65 70.4913C581.65 57.6413 593.84 53.4313 608.02 53.7213C613.476 53.8009 618.89 54.6976 624.08 56.3813C637.13 60.7913 643.63 70.7713 646 84.5713Z" fill="black"/>
<path d="M287.1 55.6913H301.79V72.2813C311.4 55.8413 320.94 50.7513 334.14 54.6613V69.3913C330.9 69.6013 327.65 69.8813 324.39 70.0013C314.27 70.3613 307.96 76.0013 305.09 85.1413C303.324 90.8242 302.316 96.7149 302.09 102.661C301.64 114.661 301.95 126.581 301.95 138.871H287.1V55.6913Z" fill="black"/>
<path d="M764.636 45.224C764.636 42.8 764.948 40.472 765.572 38.24C766.196 35.984 767.084 33.884 768.236 31.94C769.388 29.972 770.756 28.196 772.34 26.612C773.948 25.004 775.724 23.624 777.668 22.472C779.612 21.32 781.7 20.432 783.932 19.808C786.164 19.184 788.492 18.872 790.916 18.872C793.34 18.872 795.668 19.184 797.9 19.808C800.156 20.432 802.256 21.32 804.2 22.472C806.144 23.624 807.92 25.004 809.528 26.612C811.136 28.196 812.504 29.972 813.632 31.94C814.784 33.884 815.672 35.984 816.296 38.24C816.92 40.472 817.232 42.8 817.232 45.224C817.232 47.624 816.92 49.952 816.296 52.208C815.672 54.44 814.784 56.528 813.632 58.472C812.504 60.416 811.136 62.192 809.528 63.8C807.92 65.384 806.144 66.752 804.2 67.904C802.256 69.056 800.156 69.944 797.9 70.568C795.668 71.192 793.34 71.504 790.916 71.504C788.492 71.504 786.164 71.192 783.932 70.568C781.7 69.944 779.612 69.056 777.668 67.904C775.724 66.752 773.948 65.384 772.34 63.8C770.756 62.192 769.388 60.416 768.236 58.472C767.084 56.528 766.196 54.44 765.572 52.208C764.948 49.976 764.636 47.648 764.636 45.224ZM768.272 45.224C768.272 47.36 768.536 49.412 769.064 51.38C769.592 53.348 770.336 55.196 771.296 56.924C772.28 58.628 773.456 60.176 774.824 61.568C776.216 62.96 777.74 64.16 779.396 65.168C781.076 66.152 782.888 66.92 784.832 67.472C786.776 68 788.804 68.264 790.916 68.264C793.028 68.264 795.056 68 797 67.472C798.968 66.92 800.792 66.152 802.472 65.168C804.176 64.16 805.712 62.96 807.08 61.568C808.472 60.176 809.66 58.628 810.644 56.924C811.628 55.196 812.384 53.348 812.912 51.38C813.464 49.412 813.74 47.36 813.74 45.224C813.74 42.008 813.14 38.996 811.94 36.188C810.764 33.356 809.144 30.896 807.08 28.808C805.04 26.696 802.628 25.04 799.844 23.84C797.06 22.616 794.084 22.004 790.916 22.004C788.804 22.004 786.776 22.28 784.832 22.832C782.888 23.384 781.076 24.164 779.396 25.172C777.74 26.156 776.216 27.356 774.824 28.772C773.456 30.188 772.28 31.76 771.296 33.488C770.336 35.192 769.592 37.04 769.064 39.032C768.536 41.024 768.272 43.088 768.272 45.224ZM785.768 48.464V61.208H780.152V29.096H790.484C794.636 29.096 797.696 29.852 799.664 31.364C801.656 32.852 802.652 35.06 802.652 37.988C802.652 40.244 802.016 42.164 800.744 43.748C799.472 45.332 797.564 46.424 795.02 47.024C795.428 47.264 795.776 47.564 796.064 47.924C796.376 48.284 796.664 48.704 796.928 49.184L805.136 61.208H799.772C798.98 61.208 798.404 60.908 798.044 60.308L790.772 49.436C790.556 49.124 790.292 48.884 789.98 48.716C789.692 48.548 789.236 48.464 788.612 48.464H785.768ZM785.768 44.36H789.908C792.572 44.36 794.444 43.88 795.524 42.92C796.604 41.936 797.144 40.532 797.144 38.708C797.144 37.82 797.024 37.04 796.784 36.368C796.568 35.696 796.196 35.144 795.668 34.712C795.164 34.28 794.48 33.956 793.616 33.74C792.776 33.524 791.732 33.416 790.484 33.416H785.768V44.36Z" fill="black"/>
</svg>
